<svg width="440" height="440" viewBox="0 0 440 440" fill="none" xmlns="http://www.w3.org/2000/svg">
<mask id="path-1-inside-1_359_118" fill="white">
<path d="M0 0H440V440H20C8.95431 440 0 431.046 0 420V0Z"/>
</mask>
<path d="M0 0H440H0ZM440 475H20C-10.3757 475 -35 450.376 -35 420L35 405H440V475ZM20 475C-10.3757 475 -35 450.376 -35 420V0H35V405L20 475ZM440 0V440V0Z" fill="#4F4F4F" mask="url(#path-1-inside-1_359_118)"/>
<rect x="87" y="179" width="55" height="200" rx="20" fill="#00C7C7"/>
<rect x="193" y="60" width="55" height="319" rx="20" fill="#805FDC"/>
<rect x="299" y="274" width="55" height="105" rx="20" fill="#4092D1"/>
</svg>
