<svg width="296" height="220" viewBox="0 0 296 220" fill="none" xmlns="http://www.w3.org/2000/svg">
<mask id="path-1-inside-1_326_141" fill="white">
<path fill-rule="evenodd" clip-rule="evenodd" d="M7.44229 129.428C-2.48077 116.105 -2.48076 97.8948 7.4423 84.5715C39.3422 41.741 90.3728 14 147.883 14C171.087 14 193.236 18.5162 213.5 26.7176C243.458 38.8428 269.295 59.023 288.324 84.5726C298.247 97.896 298.246 116.105 288.323 129.428C256.423 172.259 205.392 200 147.883 200C90.3728 200 39.3422 172.259 7.44229 129.428Z"/>
</mask>
<path d="M204.661 17.8788L185.161 37.3788L202.839 55.0565L222.339 35.5565L204.661 17.8788ZM213.5 26.7176L222.879 3.54373L222.879 3.54373L213.5 26.7176ZM288.323 129.428L268.273 114.495L288.323 129.428ZM27.4923 99.5046C54.8775 62.7357 98.6052 39 147.883 39V-11C82.1403 -11 23.8069 20.7462 -12.6077 69.6384L27.4923 99.5046ZM147.883 39C167.818 39 186.786 42.8757 204.121 49.8915L222.879 3.54373C199.686 -5.84327 174.356 -11 147.883 -11V39ZM204.121 49.8915C229.776 60.275 251.942 77.577 268.274 99.5056L308.374 69.6397C286.648 40.4691 257.141 17.4107 222.879 3.54373L204.121 49.8915ZM268.273 114.495C240.888 151.264 197.16 175 147.883 175V225C213.625 225 271.958 193.254 308.373 144.362L268.273 114.495ZM147.883 175C98.6052 175 54.8775 151.264 27.4923 114.495L-12.6077 144.362C23.8068 193.254 82.1403 225 147.883 225V175ZM268.274 99.5056C271.596 103.967 271.596 110.033 268.273 114.495L308.373 144.362C324.895 122.178 324.897 91.8252 308.374 69.6397L268.274 99.5056ZM-12.6077 69.6384C-29.1308 91.8232 -29.1308 122.177 -12.6077 144.362L27.4923 114.495C24.1692 110.034 24.1692 103.966 27.4923 99.5046L-12.6077 69.6384Z" fill="#4F4F4F" mask="url(#path-1-inside-1_326_141)"/>
<path d="M205 107C205 138.48 179.48 164 148 164C128.462 164 111.221 154.17 100.951 139.187L180.187 59.9507C195.17 70.2208 205 87.4625 205 107Z" fill="#4F4F4F"/>
<path d="M236.293 3.83883C241.175 -1.04272 249.089 -1.04272 253.971 3.83883V3.83883C258.852 8.72039 258.852 16.635 253.971 21.5165L59.5166 215.971C54.635 220.852 46.7204 220.852 41.8389 215.971V215.971C36.9573 211.089 36.9573 203.175 41.8389 198.293L101 139.132L180.183 59.9489L236.293 3.83883Z" fill="#D00000"/>
</svg>
