<svg width="296" height="186" viewBox="0 0 296 186" fill="none" xmlns="http://www.w3.org/2000/svg">
<mask id="path-1-inside-1_326_113" fill="white">
<path fill-rule="evenodd" clip-rule="evenodd" d="M7.4423 115.428C-2.48076 102.105 -2.48077 83.8948 7.4423 70.5715C39.3422 27.741 90.3728 0 147.883 0C205.392 0 256.423 27.741 288.323 70.5715C298.246 83.8948 298.246 102.105 288.323 115.428C256.423 158.259 205.392 186 147.883 186C90.3728 186 39.3422 158.259 7.4423 115.428Z"/>
</mask>
<path d="M288.323 70.5715L268.273 85.5046L288.323 70.5715ZM288.323 115.428L268.273 100.495L288.323 115.428ZM27.4923 85.5046C54.8775 48.7357 98.6052 25 147.883 25V-25C82.1403 -25 23.8069 6.74625 -12.6077 55.6384L27.4923 85.5046ZM147.883 25C197.16 25 240.888 48.7357 268.273 85.5046L308.373 55.6384C271.958 6.74625 213.625 -25 147.883 -25V25ZM268.273 100.495C240.888 137.264 197.16 161 147.883 161V211C213.625 211 271.958 179.254 308.373 130.362L268.273 100.495ZM147.883 161C98.6052 161 54.8775 137.264 27.4923 100.495L-12.6077 130.362C23.8069 179.254 82.1403 211 147.883 211V161ZM268.273 85.5046C271.596 89.9664 271.596 96.0336 268.273 100.495L308.373 130.362C324.896 108.177 324.896 77.8232 308.373 55.6384L268.273 85.5046ZM-12.6077 55.6384C-29.1308 77.8232 -29.1308 108.177 -12.6077 130.362L27.4923 100.495C24.1692 96.0336 24.1692 89.9664 27.4923 85.5046L-12.6077 55.6384Z" fill="#4F4F4F" mask="url(#path-1-inside-1_326_113)"/>
<circle cx="148" cy="93" r="57" fill="#4F4F4F"/>
</svg>
