<svg width="150" height="150" viewBox="0 0 150 150" fill="none" xmlns="http://www.w3.org/2000/svg">
<path fill-rule="evenodd" clip-rule="evenodd" d="M67.5 0C64.7386 0 62.5 2.23858 62.5 5V26.4493C57.8483 27.5952 53.4528 29.3921 49.4157 31.738L34.3414 16.6637C32.3888 14.7111 29.2229 14.7111 27.2703 16.6637L16.6637 27.2703C14.7111 29.2229 14.7111 32.3887 16.6637 34.3414L31.6094 49.2871C29.1676 53.3515 27.2871 57.7915 26.0752 62.5H5C2.23858 62.5 0 64.7386 0 67.5V82.5C0 85.2614 2.23858 87.5 5 87.5H26.0752C27.2871 92.2085 29.1676 96.6485 31.6094 100.713L16.6637 115.659C14.7111 117.611 14.7111 120.777 16.6637 122.73L27.2703 133.336C29.2229 135.289 32.3887 135.289 34.3414 133.336L49.4157 118.262C53.4527 120.608 57.8483 122.405 62.5 123.551V145C62.5 147.761 64.7386 150 67.5 150H82.5C85.2614 150 87.5 147.761 87.5 145V123.293C92.023 122.079 96.2927 120.246 100.213 117.891L115.659 133.336C117.611 135.289 120.777 135.289 122.73 133.336L133.336 122.73C135.289 120.777 135.289 117.611 133.336 115.659L117.762 100.084C120.024 96.1922 121.775 91.9669 122.925 87.5H145C147.761 87.5 150 85.2614 150 82.5V67.5C150 64.7386 147.761 62.5 145 62.5H122.925C121.775 58.0331 120.024 53.8078 117.762 49.9157L133.336 34.3413C135.289 32.3887 135.289 29.2229 133.336 27.2703L122.73 16.6637C120.777 14.7111 117.611 14.7111 115.659 16.6637L100.213 32.1094C96.2927 29.7542 92.023 27.9212 87.5 26.7067V5C87.5 2.23858 85.2614 0 82.5 0H67.5ZM74.5 100C88.3071 100 99.5 88.8071 99.5 75C99.5 61.1929 88.3071 50 74.5 50C60.6929 50 49.5 61.1929 49.5 75C49.5 88.8071 60.6929 100 74.5 100Z" fill="#4F4F4F"/>
</svg>
