<svg width="315" height="315" viewBox="0 0 315 315" fill="none" xmlns="http://www.w3.org/2000/svg">
<path fill-rule="evenodd" clip-rule="evenodd" d="M15 0C6.71573 0 0 6.71573 0 15V300C0 308.284 6.71573 315 15 315H300C308.284 315 315 308.284 315 300V15C315 6.71573 308.284 0 300 0H15ZM230 74C227.239 74 225 76.2386 225 79V269C225 271.761 227.239 274 230 274H255C257.761 274 260 271.761 260 269V79C260 76.2386 257.761 74 255 74H230ZM55 177C55 174.239 57.2386 172 60 172H85C87.7614 172 90 174.239 90 177V267C90 269.761 87.7614 272 85 272H60C57.2386 272 55 269.761 55 267V177ZM145 124C142.239 124 140 126.239 140 129V269C140 271.761 142.239 274 145 274H170C172.761 274 175 271.761 175 269V129C175 126.239 172.761 124 170 124H145Z" fill="#E8E8E8"/>
</svg>
