<svg width="150" height="150" viewBox="0 0 150 150" fill="none" xmlns="http://www.w3.org/2000/svg">
<path fill-rule="evenodd" clip-rule="evenodd" d="M75.1258 150C75.1662 150 75.2066 150 75.2471 150C75.3313 150 75.4156 150 75.5 150C86.6909 150 96.9583 147.662 104.982 143.767C131.48 132.198 150 105.762 150 75C150 33.5786 116.421 0 75 0C33.5786 0 0 33.5786 0 75C0 116.421 33.5786 150 75 150C75.0419 150 75.0839 150 75.1258 150ZM140 75C140 92.5071 133.079 108.398 121.823 120.084C119.755 106.028 99.805 95 75.5 95C50.674 95 30.392 106.506 29.0687 120.993C17.288 109.227 10 92.9648 10 75C10 39.1015 39.1015 10 75 10C110.899 10 140 39.1015 140 75ZM75.5 88C90.6878 88 103 75.6878 103 60.5C103 45.3122 90.6878 33 75.5 33C60.3122 33 48 45.3122 48 60.5C48 75.6878 60.3122 88 75.5 88Z" fill="white"/>
</svg>
