<svg width="151" height="150" viewBox="0 0 151 150" fill="none" xmlns="http://www.w3.org/2000/svg">
<path fill-rule="evenodd" clip-rule="evenodd" d="M68 0C65.2386 0 63 2.23858 63 5V26.4493C58.3483 27.5952 53.9528 29.3921 49.9157 31.738L34.8414 16.6637C32.8888 14.7111 29.7229 14.7111 27.7703 16.6637L17.1637 27.2703C15.2111 29.2229 15.2111 32.3887 17.1637 34.3414L32.1094 49.2871C29.6676 53.3515 27.7871 57.7915 26.5752 62.5H5.5C2.73858 62.5 0.5 64.7386 0.5 67.5V82.5C0.5 85.2614 2.73858 87.5 5.5 87.5H26.5752C27.7871 92.2085 29.6676 96.6485 32.1094 100.713L17.1637 115.659C15.2111 117.611 15.2111 120.777 17.1637 122.73L27.7703 133.336C29.7229 135.289 32.8887 135.289 34.8414 133.336L49.9157 118.262C53.9527 120.608 58.3483 122.405 63 123.551V145C63 147.761 65.2386 150 68 150H83C85.7614 150 88 147.761 88 145V123.293C92.523 122.079 96.7927 120.246 100.713 117.891L116.159 133.336C118.111 135.289 121.277 135.289 123.23 133.336L133.836 122.73C135.789 120.777 135.789 117.611 133.836 115.659L118.262 100.084C120.524 96.1922 122.275 91.9669 123.425 87.5H145.5C148.261 87.5 150.5 85.2614 150.5 82.5V67.5C150.5 64.7386 148.261 62.5 145.5 62.5H123.425C122.275 58.0331 120.524 53.8078 118.262 49.9157L133.836 34.3413C135.789 32.3887 135.789 29.2229 133.836 27.2703L123.23 16.6637C121.277 14.7111 118.111 14.7111 116.159 16.6637L100.713 32.1094C96.7927 29.7542 92.523 27.9212 88 26.7067V5C88 2.23858 85.7614 0 83 0H68ZM75 100C88.8071 100 100 88.8071 100 75C100 61.1929 88.8071 50 75 50C61.1929 50 50 61.1929 50 75C50 88.8071 61.1929 100 75 100Z" fill="white"/>
</svg>
