<svg width="33" height="33" viewBox="0 0 33 33" fill="none" xmlns="http://www.w3.org/2000/svg">
<path fill-rule="evenodd" clip-rule="evenodd" d="M5 0C2.23858 0 0 2.23858 0 5V28C0 30.7614 2.23858 33 5 33H28C30.7614 33 33 30.7614 33 28V5C33 2.23858 30.7614 0 28 0H5ZM25.4048 7.75239C24.3922 7.75239 23.5714 8.5732 23.5714 9.58572V26.8714C23.5714 27.884 24.3922 28.7048 25.4048 28.7048C26.4173 28.7048 27.2381 27.884 27.2381 26.8714V9.58572C27.2381 8.5732 26.4173 7.75239 25.4048 7.75239ZM5.76188 19.8524C5.76188 18.8399 6.58269 18.0191 7.59521 18.0191C8.60773 18.0191 9.42854 18.8399 9.42854 19.8524V26.6619C9.42854 27.6744 8.60773 28.4952 7.59521 28.4952C6.58269 28.4952 5.76188 27.6744 5.76188 26.6619V19.8524ZM16.5 12.9905C15.4875 12.9905 14.6667 13.8113 14.6667 14.8238V26.8714C14.6667 27.8839 15.4875 28.7048 16.5 28.7048C17.5125 28.7048 18.3333 27.8839 18.3333 26.8714V14.8238C18.3333 13.8113 17.5125 12.9905 16.5 12.9905Z" fill="#4F4F4F"/>
</svg>
