<svg width="520" height="222" viewBox="0 0 520 222" fill="none" xmlns="http://www.w3.org/2000/svg">
<path d="M15 96C6.71573 96 -7.24234e-07 102.716 0 111C7.24234e-07 119.284 6.71573 126 15 126L15 96ZM515.607 121.607C521.464 115.749 521.464 106.251 515.607 100.393L420.147 4.93395C414.289 -0.923916 404.792 -0.923916 398.934 4.93395C393.076 10.7918 393.076 20.2893 398.934 26.1472L483.787 111L398.934 195.853C393.076 201.711 393.076 211.208 398.934 217.066C404.792 222.924 414.289 222.924 420.147 217.066L515.607 121.607ZM15 126L505 126L505 96L15 96L15 126Z" fill="#4F4F4F"/>
</svg>
