<svg width="222" height="520" viewBox="0 0 222 520" fill="none" xmlns="http://www.w3.org/2000/svg">
<path d="M96 505C96 513.284 102.716 520 111 520C119.284 520 126 513.284 126 505L96 505ZM121.607 4.3934C115.749 -1.46447 106.251 -1.46447 100.393 4.3934L4.93397 99.8528C-0.923899 105.711 -0.923899 115.208 4.93397 121.066C10.7918 126.924 20.2893 126.924 26.1472 121.066L111 36.2132L195.853 121.066C201.711 126.924 211.208 126.924 217.066 121.066C222.924 115.208 222.924 105.711 217.066 99.8528L121.607 4.3934ZM126 505L126 15L96 15L96 505L126 505Z" fill="#4F4F4F"/>
</svg>
